{
  "accessors": [
    {
      "bufferView": 2,
      "componentType": 5126,
      "count": 1063,
      "max": [
        -7.072835445404053,
        0.5230945348739624,
        2.9799273014068604
      ],
      "min": [
        -12.670108795166016,
        -3.41554594039917,
        -4.103590965270996
      ],
      "type": "VEC3"
    },
    {
      "bufferView": 2,
      "byteOffset": 12756,
      "componentType": 5126,
      "count": 1063,
      "max": [
        0.991481602191925,
        0.9990910887718201,
        0.9995818138122559
      ],
      "min": [
        -0.9914814233779907,
        -0.9985206127166748,
        -0.9998846650123596
      ],
      "type": "VEC3"
    },
    {
      "bufferView": 3,
      "componentType": 5126,
      "count": 1063,
      "max": [
        0.9666929244995117,
        0.836652934551239,
        0.9976124167442322,
        1.0
      ],
      "min": [
        -0.8748723268508911,
        -0.8736863136291504,
        -0.9659260511398315,
        -1.0
      ],
      "type": "VEC4"
    },
    {
      "bufferView": 1,
      "componentType": 5126,
      "count": 1063,
      "max": [
        0.9930724501609802,
        0.9951169490814209
      ],
      "min": [
        0.005592266097664833,
        0.004415516741573811
      ],
      "type": "VEC2"
    },
    {
      "bufferView": 0,
      "componentType": 5125,
      "count": 2979,
      "type": "SCALAR"
    },
    {
      "bufferView": 2,
      "byteOffset": 25512,
      "componentType": 5126,
      "count": 17,
      "max": [
        -7.312273979187012,
        -0.24598811566829681,
        1.6343929767608643
      ],
      "min": [
        -12.057826042175293,
        -3.2472994327545166,
        -3.6585824489593506
      ],
      "type": "VEC3"
    },
    {
      "bufferView": 2,
      "byteOffset": 25716,
      "componentType": 5126,
      "count": 17,
      "max": [
        0.482962965965271,
        -0.8365162014961243,
        0.25881943106651306
      ],
      "min": [
        0.48296281695365906,
        -0.836516261100769,
        0.2588192820549011
      ],
      "type": "VEC3"
    },
    {
      "bufferView": 3,
      "byteOffset": 17008,
      "componentType": 5126,
      "count": 17,
      "max": [
        -0.8236783742904663,
        -0.5343098044395447,
        -0.18991020321846008,
        1.0
      ],
      "min": [
        -0.8236790299415588,
        -0.5343101620674133,
        -0.18991242349147797,
        1.0
      ],
      "type": "VEC4"
    },
    {
      "bufferView": 1,
      "byteOffset": 8504,
      "componentType": 5126,
      "count": 17,
      "max": [
        0.9885210394859314,
        0.9884921908378601
      ],
      "min": [
        0.011759522370994091,
        0.011731031350791454
      ],
      "type": "VEC2"
    },
    {
      "bufferView": 0,
      "byteOffset": 11916,
      "componentType": 5125,
      "count": 48,
      "type": "SCALAR"
    },
    {
      "bufferView": 2,
      "byteOffset": 25920,
      "componentType": 5126,
      "count": 54,
      "max": [
        50.1786994934082,
        40.084800720214844,
        7.149899959564209
      ],
      "min": [
        -50.0,
        -30.0,
        -0.20352713763713837
      ],
      "type": "VEC3"
    },
    {
      "bufferView": 2,
      "byteOffset": 26568,
      "componentType": 5126,
      "count": 54,
      "max": [
        0.19764989614486694,
        0.14147014915943146,
        0.9999501705169678
      ],
      "min": [
        -0.27694249153137207,
        -0.23282410204410553,
        0.9353542923927307
      ],
      "type": "VEC3"
    },
    {
      "bufferView": 3,
      "byteOffset": 17280,
      "componentType": 5126,
      "count": 54,
      "max": [
        0.9999988079071045,
        0.005405565723776817,
        0.27800455689430237,
        1.0
      ],
      "min": [
        0.960311770439148,
        -0.028883807361125946,
        -0.1978001445531845,
        1.0
      ],
      "type": "VEC4"
    },
    {
      "bufferView": 1,
      "byteOffset": 8640,
      "componentType": 5126,
      "count": 54,
      "max": [
        0.9957941770553589,
        0.9950695037841797
      ],
      "min": [
        0.0039442661218345165,
        0.0071135759353637695
      ],
      "type": "VEC2"
    },
    {
      "bufferView": 0,
      "byteOffset": 12108,
      "componentType": 5125,
      "count": 219,
      "type": "SCALAR"
    },
    {
      "bufferView": 2,
      "byteOffset": 27216,
      "componentType": 5126,
      "count": 365,
      "max": [
        28.351591110229492,
        8.072457313537598,
        101.60267639160156
      ],
      "min": [
        -28.351591110229492,
        -8.072457313537598,
        -100.92910766601563
      ],
      "type": "VEC3"
    },
    {
      "bufferView": 2,
      "byteOffset": 31596,
      "componentType": 5126,
      "count": 365,
      "max": [
        0.9999702572822571,
        0.9999890327453613,
        1.0
      ],
      "min": [
        -0.9999702572822571,
        -0.9999890327453613,
        -0.996327817440033
      ],
      "type": "VEC3"
    },
    {
      "bufferView": 3,
      "byteOffset": 18144,
      "componentType": 5126,
      "count": 365,
      "max": [
        1.0,
        1.0,
        0.9990650415420532,
        1.0
      ],
      "min": [
        -1.0,
        -1.0,
        -0.9990649819374084,
        -1.0
      ],
      "type": "VEC4"
    },
    {
      "bufferView": 1,
      "byteOffset": 9072,
      "componentType": 5126,
      "count": 365,
      "max": [
        0.9918265342712402,
        0.9935744404792786
      ],
      "min": [
        0.005847505759447813,
        0.0060526346787810326
      ],
      "type": "VEC2"
    },
    {
      "bufferView": 0,
      "byteOffset": 12984,
      "componentType": 5125,
      "count": 1188,
      "type": "SCALAR"
    },
    {
      "bufferView": 4,
      "componentType": 5126,
      "count": 1,
      "max": [
        1.0,
        0.0,
        0.0,
        0.0,
        0.0,
        1.0,
        0.0,
        0.0,
        0.0,
        0.0,
        1.0,
        0.0,
        0.0,
        0.0,
        0.0,
        1.0
      ],
      "min": [
        1.0,
        0.0,
        0.0,
        0.0,
        0.0,
        1.0,
        0.0,
        0.0,
        0.0,
        0.0,
        1.0,
        0.0,
        0.0,
        0.0,
        0.0,
        1.0
      ],
      "type": "MAT4"
    }
  ],
  "asset": {
    "extras": {
      "author": "warcool (https://sketchfab.com/warcool)",
      "license": "CC-BY-4.0 (http://creativecommons.org/licenses/by/4.0/)",
      "source": "https://sketchfab.com/3d-models/compas-0cfac41eeed6476ba984b2d300d468bc",
      "title": "Compas"
    },
    "generator": "Sketchfab-16.82.0",
    "version": "2.0"
  },
  "bufferViews": [
    {
      "buffer": 0,
      "byteLength": 17736,
      "name": "floatBufferViews",
      "target": 34963
    },
    {
      "buffer": 0,
      "byteLength": 11992,
      "byteOffset": 17736,
      "byteStride": 8,
      "name": "floatBufferViews",
      "target": 34962
    },
    {
      "buffer": 0,
      "byteLength": 35976,
      "byteOffset": 29728,
      "byteStride": 12,
      "name": "floatBufferViews",
      "target": 34962
    },
    {
      "buffer": 0,
      "byteLength": 23984,
      "byteOffset": 65704,
      "byteStride": 16,
      "name": "floatBufferViews",
      "target": 34962
    },
    {
      "buffer": 0,
      "byteLength": 64,
      "byteOffset": 89688,
      "name": "floatBufferViews"
    }
  ],
  "buffers": [
    {
      "byteLength": 89752,
      "uri": "scene.bin"
    }
  ],
  "images": [
    {
      "uri": "textures/compass_baseColor.png"
    },
    {
      "uri": "textures/compass_metallicRoughness.png"
    },
    {
      "uri": "textures/compass_normal.png"
    },
    {
      "uri": "textures/glass_baseColor.png"
    },
    {
      "uri": "textures/glass_metallicRoughness.png"
    },
    {
      "uri": "textures/glass_normal.png"
    },
    {
      "uri": "textures/material_baseColor.png"
    },
    {
      "uri": "textures/material_metallicRoughness.png"
    },
    {
      "uri": "textures/material_normal.png"
    },
    {
      "uri": "textures/knife_baseColor.png"
    },
    {
      "uri": "textures/knife_metallicRoughness.png"
    },
    {
      "uri": "textures/knife_normal.png"
    }
  ],
  "materials": [
    {
      "doubleSided": true,
      "name": "compass",
      "normalTexture": {
        "index": 2
      },
      "occlusionTexture": {
        "index": 1
      },
      "pbrMetallicRoughness": {
        "baseColorTexture": {
          "index": 0
        },
        "metallicRoughnessTexture": {
          "index": 1
        }
      }
    },
    {
      "alphaMode": "BLEND",
      "doubleSided": true,
      "name": "glass",
      "normalTexture": {
        "index": 5
      },
      "occlusionTexture": {
        "index": 4
      },
      "pbrMetallicRoughness": {
        "baseColorTexture": {
          "index": 3
        },
        "metallicFactor": 0.0,
        "metallicRoughnessTexture": {
          "index": 4
        }
      }
    },
    {
      "alphaMode": "BLEND",
      "doubleSided": true,
      "name": "material",
      "normalTexture": {
        "index": 8
      },
      "pbrMetallicRoughness": {
        "baseColorTexture": {
          "index": 6
        },
        "metallicFactor": 0.0,
        "metallicRoughnessTexture": {
          "index": 7
        }
      }
    },
    {
      "doubleSided": true,
      "name": "knife",
      "normalTexture": {
        "index": 11
      },
      "occlusionTexture": {
        "index": 10
      },
      "pbrMetallicRoughness": {
        "baseColorTexture": {
          "index": 9
        },
        "metallicRoughnessTexture": {
          "index": 10
        }
      }
    }
  ],
  "meshes": [
    {
      "name": "Object_0",
      "primitives": [
        {
          "attributes": {
            "NORMAL": 1,
            "POSITION": 0,
            "TANGENT": 2,
            "TEXCOORD_0": 3
          },
          "indices": 4,
          "material": 0,
          "mode": 4
        }
      ]
    },
    {
      "name": "Object_1",
      "primitives": [
        {
          "attributes": {
            "NORMAL": 6,
            "POSITION": 5,
            "TANGENT": 7,
            "TEXCOORD_0": 8
          },
          "indices": 9,
          "material": 1,
          "mode": 4
        }
      ]
    },
    {
      "name": "map_map_0",
      "primitives": [
        {
          "attributes": {
            "NORMAL": 11,
            "POSITION": 10,
            "TANGENT": 12,
            "TEXCOORD_0": 13
          },
          "indices": 14,
          "material": 2,
          "mode": 4
        }
      ]
    },
    {
      "name": "knife_knife_0",
      "primitives": [
        {
          "attributes": {
            "NORMAL": 16,
            "POSITION": 15,
            "TANGENT": 17,
            "TEXCOORD_0": 18
          },
          "indices": 19,
          "material": 3,
          "mode": 4
        }
      ]
    }
  ],
  "nodes": [
    {
      "children": [
        1
      ],
      "matrix": [
        0.040048692375421524,
        0.0,
        0.0,
        0.0,
        0.0,
        8.892596076264586e-18,
        -0.040048692375421524,
        0.0,
        0.0,
        0.040048692375421524,
        8.892596076264586e-18,
        0.0,
        0.0,
        0.0,
        0.0,
        1.0
      ],
      "name": "Sketchfab_model"
    },
    {
      "children": [
        2
      ],
      "matrix": [
        1.0,
        0.0,
        0.0,
        0.0,
        0.0,
        0.0,
        1.0,
        0.0,
        0.0,
        -1.0,
        0.0,
        0.0,
        0.0,
        0.0,
        0.0,
        1.0
      ],
      "name": "237cae57f0914035ad036fde6f1a7bda.fbx"
    },
    {
      "children": [
        3
      ],
      "name": "RootNode"
    },
    {
      "children": [
        4,
        5,
        8,
        11
      ],
      "name": "Object_3"
    },
    {
      "name": "_rootJoint"
    },
    {
      "children": [
        6,
        7
      ],
      "matrix": [
        1.0,
        0.0,
        0.0,
        0.0,
        0.0,
        4.371138828673797e-08,
        -0.9999999999999997,
        0.0,
        0.0,
        0.9999999999999997,
        4.371138828673797e-08,
        0.0,
        1.9920669558359805e-08,
        1.9920669558359805e-08,
        0.0,
        1.0
      ],
      "name": "Object_5"
    },
    {
      "mesh": 0,
      "name": "Object_6"
    },
    {
      "mesh": 1,
      "name": "Object_7"
    },
    {
      "children": [
        9
      ],
      "matrix": [
        0.30872711504225925,
        0.019111497305992525,
        -0.11694478975373458,
        0.0,
        -0.08468155291638686,
        0.263869667399824,
        -0.18043169888939684,
        0.0,
        0.08288768168727674,
        0.198396859952893,
        0.25124108526966565,
        0.0,
        -1.2850804328918457,
        -2.2169861793518066,
        -6.0433349609375,
        1.0
      ],
      "name": "map"
    },
    {
      "children": [
        10
      ],
      "matrix": [
        1.0,
        0.0,
        -0.0,
        0.0,
        0.0,
        1.0,
        0.0,
        0.0,
        0.0,
        0.0,
        1.0,
        0.0,
        3.814697265625e-06,
        -3.814697265625e-06,
        -1.9073486328125e-06,
        1.0
      ],
      "name": "Object_9"
    },
    {
      "mesh": 2,
      "name": "map_map_0"
    },
    {
      "children": [
        12
      ],
      "matrix": [
        0.09533270573379429,
        -0.04910463170303388,
        0.09145780742332905,
        0.0,
        0.05028463843082644,
        -0.08678781833436255,
        -0.09901237247204156,
        0.0,
        0.09081437403436966,
        0.09960286095273892,
        -0.0411842170579279,
        0.0,
        4.440246105194092,
        -2.112478733062744,
        2.800286293029785,
        1.0
      ],
      "name": "knife"
    },
    {
      "children": [
        13
      ],
      "matrix": [
        1.0,
        0.0,
        -0.0,
        0.0,
        0.0,
        1.0,
        0.0,
        0.0,
        0.0,
        0.0,
        1.0,
        0.0,
        0.0,
        -4.680123311118223e-08,
        -0.3367805480957031,
        1.0
      ],
      "name": "Object_12"
    },
    {
      "mesh": 3,
      "name": "knife_knife_0"
    }
  ],
  "samplers": [
    {
      "magFilter": 9729,
      "minFilter": 9987,
      "wrapS": 10497,
      "wrapT": 10497
    }
  ],
  "scene": 0,
  "scenes": [
    {
      "name": "Sketchfab_Scene",
      "nodes": [
        0
      ]
    }
  ],
  "skins": [
    {
      "inverseBindMatrices": 20,
      "joints": [
        4
      ],
      "skeleton": 4
    }
  ],
  "textures": [
    {
      "sampler": 0,
      "source": 0
    },
    {
      "sampler": 0,
      "source": 1
    },
    {
      "sampler": 0,
      "source": 2
    },
    {
      "sampler": 0,
      "source": 3
    },
    {
      "sampler": 0,
      "source": 4
    },
    {
      "sampler": 0,
      "source": 5
    },
    {
      "sampler": 0,
      "source": 6
    },
    {
      "sampler": 0,
      "source": 7
    },
    {
      "sampler": 0,
      "source": 8
    },
    {
      "sampler": 0,
      "source": 9
    },
    {
      "sampler": 0,
      "source": 10
    },
    {
      "sampler": 0,
      "source": 11
    }
  ]
}
